<?xml version="1.0" standalone="no"?>
<!DOCTYPE svg PUBLIC "-//W3C//DTD SVG 20010904//EN"
 "http://www.w3.org/TR/2001/REC-SVG-20010904/DTD/svg10.dtd">
<svg version="1.0" xmlns="http://www.w3.org/2000/svg"
 width="300.000000pt" height="169.000000pt" viewBox="0 0 300.000000 169.000000"
 preserveAspectRatio="xMidYMid meet">
<metadata>
Created by potrace 1.10, written by Peter Selinger 2001-2011
</metadata>
<g transform="translate(0.000000,169.000000) scale(0.050000,-0.050000)"
fill="#8156fd" stroke="none">
<path d="M1035 2046 c-33 -8 -33 -13 5 -66 184 -258 92 -672 -185 -836 -71
-42 -70 -45 29 -110 90 -58 105 -57 254 12 304 142 600 658 473 825 -107 140
-386 225 -576 175z m351 -221 c9 -14 28 -25 43 -25 48 0 55 -81 22 -250 -12
-62 -13 -62 -29 -21 -15 37 -16 37 -27 -5 -6 -24 -3 -44 7 -44 10 0 18 -13 18
-30 0 -16 -9 -30 -20 -30 -11 0 -20 9 -20 20 0 11 -9 20 -20 20 -12 0 -12 -18
0 -49 12 -34 11 -54 -4 -63 -13 -9 -17 -5 -8 9 19 31 -10 28 -53 -5 -47 -35
-44 -58 5 -42 68 21 44 -8 -31 -39 -40 -17 -66 -39 -59 -51 7 -11 -1 -20 -17
-20 -47 0 22 152 90 201 9 6 8 37 -2 70 l-18 59 -1 -65 c-1 -36 -11 -65 -22
-65 -11 0 -20 -13 -20 -30 0 -16 -8 -30 -18 -30 -9 0 -23 -20 -29 -44 -6 -24
-18 -38 -26 -30 -13 14 28 113 57 134 34 26 54 296 27 375 -12 34 -8 45 17 45
17 0 32 7 32 17 0 26 88 16 106 -12z"/>
<path d="M869 1955 c-202 -135 -289 -426 -199 -663 69 -181 124 -182 283 -7
162 179 183 455 51 673 l-38 63 -97 -66z m109 -308 c3 -78 -5 -114 -32 -142
-20 -20 -39 -54 -43 -76 -9 -50 -9 -50 -44 -28 -24 16 -25 22 -1 37 21 14 18
21 -16 31 -46 15 -56 131 -11 131 12 0 21 20 18 45 -5 55 43 113 90 110 27 -2
35 -24 39 -108z"/>
<path d="M2127 1800 c-61 -25 -102 -92 -129 -212 -17 -73 -35 -108 -61 -115
-46 -12 -49 -68 -4 -77 28 -5 25 -15 -17 -66 -58 -70 -53 -110 15 -110 49 0
109 83 109 149 0 47 55 37 104 -19 102 -118 156 -51 162 199 5 240 -42 306
-179 251z m65 -266 c-13 -86 -15 -89 -63 -67 -52 25 -51 39 5 173 41 95 77 26
58 -106z"/>
<path d="M3377 1765 c-15 -21 -43 -44 -62 -51 -43 -16 -47 -74 -5 -74 35 0 41
-89 10 -169 -31 -82 -60 -59 -60 48 0 116 -14 129 -155 135 -114 5 -145 -21
-145 -121 0 -92 -160 -175 -176 -91 -4 23 11 32 57 34 75 2 72 0 89 66 16 67
-32 118 -111 118 -67 0 -138 -67 -141 -134 -2 -25 -5 -57 -7 -71 -16 -108 160
-188 229 -105 22 27 28 27 49 -2 42 -58 99 -25 131 76 40 126 60 139 60 41 0
-146 41 -180 136 -114 40 29 45 29 56 0 28 -71 208 25 208 111 0 10 30 18 66
18 64 0 66 -2 58 -70 -14 -120 80 -101 125 25 29 84 38 132 57 295 3 32 -10
41 -60 46 -69 7 -78 -7 -91 -144 -3 -33 -18 -63 -33 -68 -22 -7 -24 3 -12 48
44 163 -4 194 -66 43 -24 -58 -44 -115 -44 -127 0 -12 -22 -42 -50 -68 -55
-52 -60 -39 -31 87 9 42 34 89 54 104 26 20 30 33 14 44 -12 8 -26 33 -30 55
-10 53 -86 63 -120 15z"/>
<path d="M3901 1743 c-25 -47 -9 -63 63 -63 l57 0 -71 -140 c-84 -167 -87
-200 -19 -200 52 0 229 312 229 404 0 54 -229 53 -259 -1z"/>
<path d="M4187 1750 c-6 -17 -1 -43 12 -58 29 -36 -11 -287 -53 -329 -42 -41
-5 -67 86 -59 76 6 78 8 79 86 3 206 10 251 49 290 57 57 50 73 -35 87 -109
18 -125 16 -138 -17z"/>
<path d="M4575 1761 c-136 -27 -204 -142 -157 -266 34 -90 82 -70 82 33 0 107
15 152 52 152 19 0 24 -17 17 -55 -53 -301 -50 -333 34 -322 37 6 48 21 53 72
4 36 15 60 26 54 81 -50 218 79 218 206 0 104 -147 162 -325 126z m194 -92
c46 -47 20 -154 -45 -178 -45 -18 -49 -3 -34 108 15 107 28 120 79 70z"/>
<path d="M5015 1749 c-105 -57 -93 -193 24 -261 67 -40 76 -70 31 -108 -24
-20 -33 -15 -49 28 -30 78 -121 56 -121 -29 0 -132 275 -123 308 11 16 65 -8
110 -96 177 -74 57 -79 113 -10 113 27 0 38 -14 38 -50 0 -62 68 -70 99 -11
64 119 -85 205 -224 130z"/>
<path d="M1671 1690 c-46 -266 -270 -561 -511 -675 -107 -51 -109 -52 -54 -66
379 -95 763 384 607 756 l-28 65 -14 -80z"/>
<path d="M2428 1644 c-125 -85 -105 -304 27 -304 49 0 51 -3 22 -32 -27 -27
-38 -28 -75 -5 -54 34 -91 -8 -60 -67 23 -43 152 -50 203 -11 33 25 124 385
105 416 -12 19 -194 22 -222 3z m92 -109 c-1 -49 -25 -115 -42 -115 -10 0 -18
32 -18 70 0 49 9 70 30 70 17 0 30 -11 30 -25z"/>
</g>
</svg>
